<svg width="25" height="26" viewBox="0 0 25 26" fill="none" xmlns="http://www.w3.org/2000/svg">
<rect y="0.409424" width="25" height="25.4245" rx="12.5" fill="#C2CEFF"/>
<path fill-rule="evenodd" clip-rule="evenodd" d="M18.3522 6.83542C18.0875 6.5662 17.74 6.43103 17.3924 6.43103C17.0449 6.43103 16.6974 6.5662 16.4327 6.83542C16.4327 6.83542 16.4131 6.85425 16.388 6.88084C16.3869 6.88195 16.3855 6.88278 16.3842 6.88361C16.3828 6.88444 16.3815 6.88527 16.3804 6.88638L6.56263 16.8698C6.52886 16.9053 6.5038 16.9485 6.49073 16.9972L5.93077 19.1211C5.90463 19.2186 5.93186 19.3227 6.00268 19.3947C6.05606 19.449 6.12687 19.4778 6.19986 19.4778C6.22382 19.4778 6.24779 19.4745 6.27176 19.4679L8.36015 18.8984C8.40809 18.8851 8.45057 18.8596 8.48543 18.8242L18.3021 8.84185C18.3041 8.83977 18.3053 8.83726 18.3065 8.83485C18.3071 8.83341 18.3078 8.83202 18.3086 8.83077L18.3511 8.78756C18.8827 8.24801 18.8827 7.37387 18.3522 6.83542ZM17.9579 7.23539C18.2695 7.55226 18.2695 8.06855 17.9579 8.38541C17.8945 8.4491 17.8378 8.50708 17.7866 8.55935L17.7193 8.62804L16.5885 7.47803L16.8271 7.23539C16.9774 7.08139 17.179 6.99719 17.3925 6.99719C17.606 6.99719 17.8065 7.0825 17.9579 7.23539ZM7.8314 18.4552L6.92719 17.5356L6.59492 18.7931L7.8314 18.4552Z" fill="white"/>
</svg>

