<svg width="20" height="20" viewBox="0 0 20 20" fill="none" xmlns="http://www.w3.org/2000/svg">
<path fill-rule="evenodd" clip-rule="evenodd" d="M19.2117 8C19.2117 3.5912 15.6205 0 11.2117 0C6.80287 0 3.21167 3.5912 3.21167 8C3.21167 9.91721 3.89248 11.6779 5.02261 13.0578L0.246046 17.8344C0.0370541 18.035 -0.0471363 18.333 0.0259495 18.6133C0.0990353 18.8937 0.317974 19.1126 0.598328 19.1857C0.878681 19.2588 1.17664 19.1746 1.37729 18.9656L6.15386 14.1891C7.53376 15.3192 9.29446 16 11.2117 16C15.6205 16 19.2117 12.4088 19.2117 8ZM4.81167 8C4.81167 4.4559 7.66757 1.6 11.2117 1.6C14.7558 1.6 17.6117 4.4559 17.6117 8C17.6117 11.5441 14.7558 14.4 11.2117 14.4C7.66757 14.4 4.81167 11.5441 4.81167 8Z" fill="url(#paint0_radial)"/>
<defs>
<radialGradient id="paint0_radial" cx="0" cy="0" r="1" gradientUnits="userSpaceOnUse" gradientTransform="translate(9.60587) rotate(90) scale(42.6372)">
<stop stop-color="#4A90E2"/>
<stop offset="1" stop-color="#4361CE"/>
</radialGradient>
</defs>
</svg>
